<?xml version="1.0" standalone="no"?><!DOCTYPE svg PUBLIC "-//W3C//DTD SVG 1.1//EN" "http://www.w3.org/Graphics/SVG/1.1/DTD/svg11.dtd"><svg t="1552028322490" class="icon" style="" viewBox="0 0 1024 1024" version="1.1" xmlns="http://www.w3.org/2000/svg" p-id="8371" xmlns:xlink="http://www.w3.org/1999/xlink" width="200" height="200"><defs><style type="text/css"></style></defs><path d="M529.102005 938.378947c-246.272963 0-446.6312-200.361307-446.6312-446.63427s200.358237-446.632223 446.6312-446.632223 446.633247 200.35926 446.633247 446.632223S775.374968 938.378947 529.102005 938.378947zM529.102005 103.220896c-214.233246 0-388.521734 174.290535-388.521734 388.522758 0 214.233246 174.288488 388.525827 388.521734 388.525827s388.525827-174.292582 388.525827-388.525827C917.625786 277.511431 743.333204 103.220896 529.102005 103.220896z" p-id="8372"></path><path d="M529.102005 727.258599c-16.048511 0-29.055756-13.012362-29.055756-29.05678L500.046249 277.365098c0-16.047488 13.007245-29.054733 29.055756-29.054733s29.055756 13.007245 29.055756 29.054733l0 420.837744C558.155714 714.246237 545.148469 727.258599 529.102005 727.258599z" p-id="8373"></path><path d="M739.517295 516.841262 318.681598 516.841262c-16.047488 0-29.054733-13.007245-29.054733-29.055756 0-16.046464 13.007245-29.054733 29.054733-29.054733l420.835697 0c16.047488 0 29.055756 13.008268 29.055756 29.054733C768.571005 503.832993 755.562736 516.841262 739.517295 516.841262z" p-id="8374"></path></svg>