<?xml version="1.0" standalone="no"?><!DOCTYPE svg PUBLIC "-//W3C//DTD SVG 1.1//EN" "http://www.w3.org/Graphics/SVG/1.1/DTD/svg11.dtd">
<svg t="1533108198068" class="icon" style="" viewBox="0 0 1024 1024" version="1.1" xmlns="http://www.w3.org/2000/svg" p-id="8237" xmlns:xlink="http://www.w3.org/1999/xlink" width="200" height="200">
    <path d="M510.293333 0C229.461333 0 0 229.461333 0 510.293333c0 280.832 229.461333 510.293333 510.293333 510.293334 284.245333 0 513.706667-229.461333 513.706667-510.293334C1024 229.461333 794.538667 0 510.293333 0z m212.309334 691.797333a33.109333 33.109333 0 0 1 0 47.957334 33.109333 33.109333 0 0 1-47.914667 0l-167.808-167.808-167.850667 167.808a33.109333 33.109333 0 0 1-47.914666 0 33.109333 33.109333 0 0 1 0-47.957334l167.808-167.808-167.808-167.808a33.109333 33.109333 0 0 1 0-47.957333 33.109333 33.109333 0 0 1 47.914666 0l167.850667 167.808 167.808-167.808a33.109333 33.109333 0 0 1 47.914667 0 33.109333 33.109333 0 0 1 0 47.957333l-167.808 167.808 167.808 167.808z"
          p-id="8238"></path>
</svg>