<?xml version="1.0" encoding="utf-8"?>
<!-- Generator: Adobe Illustrator 23.0.0, SVG Export Plug-In . SVG Version: 6.00 Build 0)  -->
<svg version="1.1" id="图层_1" xmlns="http://www.w3.org/2000/svg" xmlns:xlink="http://www.w3.org/1999/xlink" x="0px" y="0px"
	 viewBox="0 0 30 30" style="enable-background:new 0 0 30 30;" xml:space="preserve">
<g>
	<path d="M25.2,14.2c-0.6,0-1,0.4-1,1v8.4c0,0.6-0.4,1-1,1H6.4c-0.6,0-1-0.4-1-1V6.8c0-0.6,0.4-1,1-1h8.4c0.6,0,1-0.4,1-1
		s-0.4-1-1-1H6.4c-1.7,0-3,1.3-3,3v16.8c0,1.7,1.3,3,3,3h16.8c1.7,0,3-1.3,3-3v-8.4C26.2,14.6,25.8,14.2,25.2,14.2z"/>
	<path d="M26.3,5.4l-1.5-1.5c-0.7-0.7-1.7-0.7-2.4,0l-8,8L13,18l5.4-2.2l7.9-7.9c0.3-0.3,0.5-0.8,0.5-1.2S26.6,5.7,26.3,5.4z
		 M17.2,14.1l-1.4,0.6l0.4-1.7l3.9-4l1.1,1.1L17.2,14.1z M22.6,8.7l-1.1-1.1l2.1-2.1l1.1,1.1L22.6,8.7z"/>
</g>
</svg>
