<?xml version="1.0" encoding="utf-8"?>
<!-- Generator: Adobe Illustrator 23.0.0, SVG Export Plug-In . SVG Version: 6.00 Build 0)  -->
<svg version="1.1" id="图层_1" xmlns="http://www.w3.org/2000/svg" xmlns:xlink="http://www.w3.org/1999/xlink" x="0px" y="0px"
	 viewBox="0 0 30 30" style="enable-background:new 0 0 30 30;" xml:space="preserve">
<g>
	<g>
		<path d="M15.5,26.9H4.9c-1.1,0-2-0.9-2-2V5.1c0-1.1,0.9-2,2-2h10.5c0.6,0,1,0.4,1,1s-0.4,1-1,1H4.9V25h10.6c0.6,0,1,0.4,1,1
			S16.1,26.9,15.5,26.9z"/>
	</g>
	<path d="M26.8,14.4C26.8,14.3,26.8,14.3,26.8,14.4c-0.1-0.1-0.1-0.1-0.1-0.2L26.6,14l-6-5.7c-0.4-0.4-1-0.4-1.4,0
		c-0.4,0.4-0.4,1,0,1.4l4.5,4.3h-12c-0.6,0-1,0.4-1,1s0.4,1,1,1h11.9l-4.5,4.3c-0.4,0.4-0.4,1,0,1.4c0.2,0.2,0.5,0.3,0.7,0.3
		s0.5-0.1,0.7-0.3l6.3-6C27.2,15.4,27.2,14.8,26.8,14.4z"/>
</g>
</svg>
