<?xml version="1.0" encoding="utf-8"?>
<!-- Generator: Adobe Illustrator 22.0.1, SVG Export Plug-In . SVG Version: 6.00 Build 0)  -->
<svg version="1.1" id="图层_1" xmlns="http://www.w3.org/2000/svg" xmlns:xlink="http://www.w3.org/1999/xlink" x="0px" y="0px"
	 viewBox="0 0 30 30" style="enable-background:new 0 0 30 30;" xml:space="preserve">
<g>
	<path class="st0" d="M27,7.3h-7.2l1.4-1.4c0.4-0.3,0.4-1,0-1.4l-1.4-1.4c-0.3-0.4-1-0.4-1.4,0L15,6.4l-3.3-3.3
		c-0.3-0.4-1-0.4-1.4,0L8.9,4.5c-0.4,0.3-0.4,1,0,1.4l1.4,1.4H3c-0.5,0-1,0.4-1,1v4c0,0.5,0.4,1,1,1h24c0.5,0,1-0.4,1-1v-4
		C28,7.7,27.6,7.3,27,7.3z"/>
	<path class="st0" d="M5,26.3c0,0.5,0.3,1,0.9,1h18.3c0.4,0,0.9-0.4,0.9-1v-12H5V26.3z"/>
</g>
</svg>
