<?xml version="1.0" encoding="utf-8"?>
<!-- Generator: Adobe Illustrator 22.0.1, SVG Export Plug-In . SVG Version: 6.00 Build 0)  -->
<svg version="1.1" id="图层_1" xmlns="http://www.w3.org/2000/svg" xmlns:xlink="http://www.w3.org/1999/xlink" x="0px" y="0px"
	 viewBox="0 0 30 30" style="enable-background:new 0 0 30 30;" xml:space="preserve">
<g>
	<g>
		<path d="M4.2,4.8h7.4c0.7,0,1.3,0.6,1.3,1.3v7.4c0,0.7-0.6,1.3-1.3,1.3H4.2c-0.7,0-1.3-0.6-1.3-1.3V6C2.9,5.3,3.5,4.8,4.2,4.8z
			 M4.2,17.3h7.4c0.7,0,1.3,0.6,1.3,1.3V26c0,0.7-0.6,1.3-1.3,1.3H4.2c-0.7,0-1.3-0.6-1.3-1.3v-7.4C2.9,17.9,3.5,17.3,4.2,17.3z
			 M16.8,17.3h7.4c0.7,0,1.3,0.6,1.3,1.3V26c0,0.7-0.6,1.3-1.3,1.3h-7.4c-0.7,0-1.3-0.6-1.3-1.3v-7.4C15.5,17.9,16.1,17.3,16.8,17.3
			z"/>
		<path d="M21.3,3.5l5.4,5.4c0.4,0.4,0.4,1.2,0,1.6L21.3,16c-0.4,0.4-1.2,0.4-1.6,0l-5.4-5.4c-0.4-0.4-0.4-1.2,0-1.6l5.4-5.4
			C20.1,3.1,20.9,3.1,21.3,3.5z"/>
	</g>
</g>
</svg>
