<?xml version="1.0" encoding="utf-8"?>
<!-- Generator: Adobe Illustrator 22.0.1, SVG Export Plug-In . SVG Version: 6.00 Build 0)  -->
<svg version="1.1" id="图层_1" xmlns="http://www.w3.org/2000/svg" xmlns:xlink="http://www.w3.org/1999/xlink" x="0px" y="0px"
	 viewBox="0 0 30 30" style="enable-background:new 0 0 30 30;" xml:space="preserve">
<g>
	<path d="M14.4,16V4.6c0-0.2-0.1-0.3-0.3-0.3C7.5,4.3,2.1,9.6,2.1,16.2S7.5,28.1,14,28.1c3.4,0,6.8-1.5,9-4.1c0.1-0.1,0.1-0.3,0-0.4
		L14.4,16z"/>
	<path d="M16,14.1h11.6c0.1,0,0.2,0,0.2-0.1c0.1-0.1,0.1-0.2,0.1-0.2C27.9,7.3,22.5,2,16,2c-0.2,0-0.3,0.1-0.3,0.3v11.5
		C15.6,13.9,15.8,14.1,16,14.1L16,14.1z M27.6,15.4h-11c-0.1,0-0.2,0.1-0.3,0.2c0,0.1,0,0.3,0.1,0.3l8.3,7.1c0.1,0,0.1,0.1,0.2,0.1
		l0,0c0.1,0,0.2,0,0.2-0.1c1.7-2,2.7-4.6,2.8-7.3c0-0.1,0-0.2-0.1-0.2C27.8,15.4,27.7,15.4,27.6,15.4L27.6,15.4z"/>
</g>
</svg>
