<?xml version="1.0" encoding="utf-8"?>
<!-- Generator: Adobe Illustrator 22.0.1, SVG Export Plug-In . SVG Version: 6.00 Build 0)  -->
<svg version="1.1" id="图层_1" xmlns="http://www.w3.org/2000/svg" xmlns:xlink="http://www.w3.org/1999/xlink" x="0px" y="0px"
	 viewBox="0 0 30 30" style="enable-background:new 0 0 30 30;" xml:space="preserve">
<g>
	<path class="st0" d="M26.4,18.6c-0.1-0.1-3.1-1.3-6.1-1.9c1.5-1,2.5-2.7,2.5-4.6V8.9c0-3.1-2.5-5.5-5.5-5.5s-5.5,2.5-5.5,5.5v3.3
		c0,1.9,0.9,3.5,2.3,4.5c-3.4,0.5-6.2,2-6.4,2.1C6.8,19,6,20.1,6,21.1V25l0,0c0.1,1,1,1.7,2,1.7h17.9c0.9,0,1.6-0.5,2-1.4l0.1-0.1
		v-4.2C27.9,19.9,27.2,18.9,26.4,18.6z"/>
	<path class="st0" d="M10.1,16.2C10.2,16.2,10.2,16.2,10.1,16.2c0.7,0,1.1-0.4,1.1-1s-0.4-1-1-1C9,14.2,8,13.2,8,12V9.4
		c0-1.2,1-2.2,2.2-2.2c0.5,0,1-0.4,1-1s-0.4-1-1-1C7.9,5.3,6,7.1,6,9.4V12c0,1,0.4,2,1,2.6c-2,0.5-3.5,1.5-3.8,1.7
		c-0.8,0.3-1.2,1.1-1.2,2v2.8c0,0.5,0.4,1,1,1s1-0.4,1-1v-2.8c0.1,0,0.1-0.1,0.1-0.1s0.1,0,0.1-0.1c1-0.5,3.7-2,5.8-2H10.1"/>
</g>
</svg>
