<?xml version="1.0" encoding="utf-8"?>
<!-- Generator: Adobe Illustrator 22.0.1, SVG Export Plug-In . SVG Version: 6.00 Build 0)  -->
<svg version="1.1" id="图层_1" xmlns="http://www.w3.org/2000/svg" xmlns:xlink="http://www.w3.org/1999/xlink" x="0px" y="0px"
	 viewBox="0 0 30 30" style="enable-background:new 0 0 30 30;" xml:space="preserve">
<style type="text/css">
	.st0{stroke:#606266;stroke-width:2;stroke-linecap:round;stroke-miterlimit:10;}
</style>
<g>
	<path class="st0" d="M15,15"/>
</g>
<g>
	<path d="M22.1,27H8c-1.4,0-2.4-1-2.4-2.4v-9.5c-0.3,0-0.9,0-1.3-0.5l-3-3.1c-0.8-0.7-0.8-1.9,0-2.7l5-5C6.9,3.2,7.5,3,8.1,3h1.3
		c0.9,0,1.5,0.3,1.9,0.8c0.6,0.5,2.4,1.2,3.5,1.2c1.3,0,3.1-0.5,3.5-1.1l0.1-0.1l0.1-0.1c0.4-0.2,1-0.6,1.7-0.6h1.5
		c0.6,0,1.3,0.2,1.7,0.7l5,5c0.8,0.7,0.8,1.9,0,2.7l-3,3c-0.3,0.3-0.8,0.5-1.2,0.5v9.6C24.4,25.9,23.4,27,22.1,27z M6.2,12.6h0.3
		c0.8,0,1.3,0.5,1.3,1.3v10.7c0,0.1,0.1,0.2,0.2,0.2h14c0.1,0,0.2-0.1,0.2-0.2V13.8c0-0.7,0.5-1.3,1.3-1.3H24l0.3,0.2l2.7-2.7
		l-4.8-4.8C22.1,5.1,22,5.1,22,5.1h-1.6c-0.1,0-0.2,0.1-0.3,0.2c-1.2,1.3-3.7,1.7-5.1,1.7c-1.6,0-4.1-0.6-5.1-1.8L9.6,5.1
		c0,0-0.1,0-0.2,0H8.1c0,0-0.1,0-0.2,0.1l-4.8,4.8l2.6,2.8L6.2,12.6z M2.9,10L2.9,10L2.9,10z"/>
</g>
</svg>
