<?xml version="1.0" encoding="utf-8"?>
<!-- Generator: Adobe Illustrator 23.0.0, SVG Export Plug-In . SVG Version: 6.00 Build 0)  -->
<svg version="1.1" id="图层_1" xmlns="http://www.w3.org/2000/svg" xmlns:xlink="http://www.w3.org/1999/xlink" x="0px" y="0px"
	 viewBox="0 0 30 30" style="enable-background:new 0 0 30 30;" xml:space="preserve">
<g>
	<path d="M11,4.1c0-0.6-0.4-1-1-1H3.2v6.8c0,0.6,0.4,1,1,1s1-0.4,1-1V6.5l4.1,4.1c0.2,0.2,0.5,0.3,0.7,0.3s0.5-0.1,0.7-0.3
		c0.4-0.4,0.4-1,0-1.4L6.6,5.1H10C10.5,5.1,11,4.6,11,4.1z"/>
	<path d="M20,3.1c-0.6,0-1,0.4-1,1s0.4,1,1,1h3.4l-4.1,4.1c-0.4,0.4-0.4,1,0,1.4c0.2,0.2,0.5,0.3,0.7,0.3s0.5-0.1,0.7-0.3l4.1-4.1
		v3.4c0,0.6,0.4,1,1,1s1-0.4,1-1V3.1H20z"/>
	<path d="M10.7,19.4c-0.4-0.4-1-0.4-1.4,0l-4.1,4.1v-3.4c0-0.6-0.4-1-1-1s-1,0.4-1,1v6.8H10c0.6,0,1-0.4,1-1s-0.4-1-1-1H6.6l4.1-4.1
		C11.1,20.4,11.1,19.8,10.7,19.4z"/>
	<path d="M25.8,19.1c-0.6,0-1,0.4-1,1v3.4l-4.1-4.1c-0.4-0.4-1-0.4-1.4,0s-0.4,1,0,1.4l4.1,4.1H20c-0.6,0-1,0.4-1,1s0.4,1,1,1h6.8
		v-6.8C26.8,19.5,26.4,19.1,25.8,19.1z"/>
</g>
</svg>
