<?xml version="1.0" encoding="utf-8"?>
<!-- Generator: Adobe Illustrator 23.0.0, SVG Export Plug-In . SVG Version: 6.00 Build 0)  -->
<svg version="1.1" id="图层_1" xmlns="http://www.w3.org/2000/svg" xmlns:xlink="http://www.w3.org/1999/xlink" x="0px" y="0px"
     viewBox="0 0 30 30" style="enable-background:new 0 0 30 30;" xml:space="preserve">
    <path class="st0" d="M18.5,23.9c-1.1,0.5-2.5,0.8-3.9,0.8c-5.3,0-9.6-4.3-9.6-9.6c0-5.3,4.3-9.7,9.6-9.7c2.6,0,5,1,6.7,2.8l-3.5,3.1
	l8.1,1.6l-0.3-8.5l-2.9,2.5c-2.2-2.2-5.1-3.4-8.2-3.4C8.2,3.4,3,8.6,3,15.1c0,6.4,5.2,11.6,11.6,11.6c1.7,0,3.3-0.3,4.7-1
	c0.5-0.2,0.7-0.8,0.5-1.3C19.6,23.9,19,23.7,18.5,23.9z"/>
</svg>
