<?xml version="1.0" encoding="utf-8"?>
<!-- Generator: Adobe Illustrator 23.0.0, SVG Export Plug-In . SVG Version: 6.00 Build 0)  -->
<svg version="1.1" id="图层_1" xmlns="http://www.w3.org/2000/svg" xmlns:xlink="http://www.w3.org/1999/xlink" x="0px" y="0px"
	 viewBox="0 0 30 30" style="enable-background:new 0 0 30 30;" xml:space="preserve">
<g>
	<path d="M15,1.9C7.8,1.9,1.9,7.8,1.9,15S7.8,28.1,15,28.1S28.1,22.2,28.1,15S22.2,1.9,15,1.9z M15,26.1c-6.1,0-11.1-5-11.1-11.1
		S8.9,3.9,15,3.9s11.1,5,11.1,11.1S21.1,26.1,15,26.1z"/>
	<path d="M12.1,9c-0.6,0-1,0.4-1,1v10c0,0.6,0.4,1,1,1c0.6,0,1-0.4,1-1V10C13.1,9.4,12.7,9,12.1,9z"/>
	<path d="M17.9,9c-0.6,0-1,0.4-1,1v10c0,0.6,0.4,1,1,1c0.6,0,1-0.4,1-1V10C18.9,9.4,18.5,9,17.9,9z"/>
</g>
</svg>
