<?xml version="1.0" encoding="utf-8"?>
<!-- Generator: Adobe Illustrator 23.0.0, SVG Export Plug-In . SVG Version: 6.00 Build 0)  -->
<svg version="1.1" id="图层_1" xmlns="http://www.w3.org/2000/svg" xmlns:xlink="http://www.w3.org/1999/xlink" x="0px" y="0px"
	 viewBox="0 0 30 30" style="enable-background:new 0 0 30 30;" xml:space="preserve">
<g>
	<path d="M26.1,6.2h-5.4V3.9c0-0.8-0.7-1.4-1.7-1.4h-8.1c-1,0-1.7,0.6-1.7,1.4v2.3H3.9c-0.6,0-1,0.4-1,1c0,0.6,0.4,1,1,1h22.2
		c0.6,0,1-0.4,1-1C27.1,6.6,26.7,6.2,26.1,6.2z M18.7,6.2h-7.5V4.5h7.5V6.2z"/>
	<path d="M13.4,22.6v-10c0-0.6-0.4-1-1-1c-0.6,0-1,0.4-1,1v10c0,0.6,0.4,1,1,1C13,23.6,13.4,23.2,13.4,22.6z"/>
	<path d="M18.6,22.6v-10c0-0.6-0.4-1-1-1c-0.6,0-1,0.4-1,1v10c0,0.6,0.4,1,1,1C18.2,23.6,18.6,23.2,18.6,22.6z"/>
	<path d="M23.4,9.2c-0.6,0-1,0.4-1,1v15c0,0.2-0.1,0.3-0.3,0.3H7.8c-0.2,0-0.3-0.1-0.3-0.3v-15c0-0.6-0.4-1-1-1s-1,0.4-1,1v15
		c0,1.3,1,2.3,2.3,2.3h14.3c1.3,0,2.3-1,2.3-2.3v-15C24.4,9.6,24,9.2,23.4,9.2z"/>
</g>
</svg>
