<?xml version="1.0" encoding="utf-8"?>
<!-- Generator: Adobe Illustrator 23.0.0, SVG Export Plug-In . SVG Version: 6.00 Build 0)  -->
<svg version="1.1" id="图层_1" xmlns="http://www.w3.org/2000/svg" xmlns:xlink="http://www.w3.org/1999/xlink" x="0px" y="0px"
	 viewBox="0 0 30 30" style="enable-background:new 0 0 30 30;" xml:space="preserve">
<g>
	<path d="M15,1.8C7.7,1.8,1.8,7.7,1.8,15S7.7,28.2,15,28.2S28.2,22.3,28.2,15S22.3,1.8,15,1.8z M15,26.2c-6.2,0-11.2-5-11.2-11.2
		S8.8,3.8,15,3.8s11.2,5,11.2,11.2S21.2,26.2,15,26.2z"/>
	<path d="M15.8,8.5L15.8,8.5c-0.1-0.1-0.1-0.1-0.1-0.1l0,0c0,0,0,0-0.1,0c0,0-0.1,0-0.1-0.1h-0.1h-0.1h-0.1c0,0,0,0-0.1,0
		c0,0,0,0-0.1,0h-0.1h-0.1h-0.1c0,0-0.1,0-0.1,0.1c0,0,0,0-0.1,0l0,0l-0.1,0.1l0,0l-4.5,5.9c-0.3,0.4-0.3,1.1,0.2,1.4
		c0.2,0.1,0.4,0.2,0.6,0.2c0.3,0,0.6-0.1,0.8-0.4l2.7-3.5v8.8c0,0.6,0.4,1,1,1s1-0.4,1-1v-8.8l2.7,3.5c0.2,0.3,0.5,0.4,0.8,0.4
		c0.2,0,0.4-0.1,0.6-0.2c0.4-0.3,0.5-1,0.2-1.4L15.8,8.5z"/>
</g>
</svg>
