<?xml version="1.0" standalone="no"?><!DOCTYPE svg PUBLIC "-//W3C//DTD SVG 1.1//EN" "http://www.w3.org/Graphics/SVG/1.1/DTD/svg11.dtd"><svg t="1531101962038" class="icon" style="" viewBox="0 0 1024 1024" version="1.1" xmlns="http://www.w3.org/2000/svg" p-id="9027" xmlns:xlink="http://www.w3.org/1999/xlink" width="200" height="200"><defs><style type="text/css"></style></defs><path d="M480 802.133333c-19.2 0-32-4.266667-38.4-12.8-6.4-8.533333-10.666667-23.466667-10.666667-40.533333v-40.533333-59.733334-61.866666-46.933334c0-17.066667-2.133333-29.866667-4.266666-38.4-4.266667-8.533333-10.666667-14.933333-21.333334-12.8h-61.866666c-14.933333 0-25.6-4.266667-27.733334-12.8-4.266667-8.533333-2.133333-19.2 8.533334-32s21.333333-27.733333 36.266666-46.933333c12.8-17.066667 27.733333-36.266667 42.666667-53.333333 14.933333-19.2 29.866667-36.266667 42.666667-55.466667 14.933333-17.066667 25.6-34.133333 36.266666-46.933333 10.666667-12.8 19.2-19.2 27.733334-19.2s19.2 4.266667 29.866666 17.066666c10.666667 12.8 21.333333 27.733333 36.266667 44.8 12.8 17.066667 27.733333 34.133333 42.666667 51.2 14.933333 17.066667 29.866667 36.266667 42.666666 53.333334 14.933333 17.066667 27.733333 32 38.4 46.933333 12.8 14.933333 17.066667 27.733333 14.933334 36.266667-2.133333 10.666667-12.8 14.933333-27.733334 14.933333h-70.4c-10.666667 0-17.066667 4.266667-21.333333 10.666667-2.133333 6.4-4.266667 14.933333-4.266667 25.6V750.933333c0 6.4 0 10.666667-2.133333 17.066667 0 6.4-2.133333 10.666667-6.4 17.066667l-12.8 12.8c-6.4 4.266667-12.8 4.266667-23.466667 4.266666h-66.133333z m0 0" p-id="9028"></path></svg>